<svg width="20" height="34" viewBox="0 0 20 34" fill="none" xmlns="http://www.w3.org/2000/svg">
<path d="M16.9062 0.53125H3.09375C2.53039 0.531988 1.99032 0.756108 1.59196 1.15446C1.19361 1.55282 0.969488 2.09289 0.96875 2.65625V31.3438C0.969488 31.9071 1.19361 32.4472 1.59196 32.8455C1.99032 33.2439 2.53039 33.468 3.09375 33.4688H16.9062C17.4696 33.468 18.0097 33.2439 18.408 32.8455C18.8064 32.4472 19.0305 31.9071 19.0312 31.3438V2.65625C19.0305 2.09289 18.8064 1.55282 18.408 1.15446C18.0097 0.756108 17.4696 0.531988 16.9062 0.53125ZM12.4862 1.59375L12.1874 2.65625H7.75879L7.49316 1.59375H12.4862ZM17.9688 31.3438C17.9684 31.6254 17.8563 31.8955 17.6571 32.0946C17.458 32.2938 17.1879 32.4059 16.9062 32.4062H3.09375C2.81207 32.4059 2.54203 32.2938 2.34286 32.0946C2.14368 31.8955 2.03162 31.6254 2.03125 31.3438V2.65625C2.03162 2.37457 2.14368 2.10453 2.34286 1.90536C2.54203 1.70618 2.81207 1.59412 3.09375 1.59375H6.39746L6.82844 3.31633C6.85717 3.43126 6.92348 3.53329 7.01685 3.6062C7.11022 3.67912 7.22528 3.71873 7.34375 3.71875H12.5898C12.7056 3.71875 12.8182 3.68093 12.9105 3.61104C13.0028 3.54116 13.0698 3.44303 13.1012 3.3316L13.5899 1.59375H16.9062C17.1879 1.59412 17.458 1.70618 17.6571 1.90536C17.8563 2.10453 17.9684 2.37457 17.9688 2.65625V31.3438Z" fill="#BB3800"/>
</svg>
